<?xml version="1.0" standalone="no"?>
<!DOCTYPE svg PUBLIC "-//W3C//DTD SVG 20010904//EN"
 "http://www.w3.org/TR/2001/REC-SVG-20010904/DTD/svg10.dtd">
<svg version="1.0" xmlns="http://www.w3.org/2000/svg"
 width="320.000000pt" height="320.000000pt" viewBox="0 0 320.000000 320.000000"
 preserveAspectRatio="xMidYMid meet">
<metadata>
Created by potrace 1.14, written by Peter Selinger 2001-2017
</metadata>
<g transform="translate(0.000000,320.000000) scale(0.100000,-0.100000)"
fill="#000000" stroke="none">
<path d="M81 3163 c132 -222 341 -392 625 -513 153 -66 288 -100 532 -136 76
-11 117 -21 108 -26 -8 -5 -61 -15 -118 -24 -159 -24 -322 -12 -611 47 -180
37 -375 114 -531 211 -43 27 -81 46 -84 43 -7 -6 -7 -6 58 -47 212 -135 439
-210 792 -263 150 -23 364 -17 483 13 44 11 128 23 186 26 91 5 191 20 264 41
18 6 20 1 21 -57 0 -43 7 -76 21 -103 25 -49 96 -116 151 -144 23 -11 44 -25
47 -31 8 -12 -15 -52 -52 -92 l-25 -26 33 -63 c83 -155 247 -272 386 -273 l67
-1 12 75 c14 87 38 150 58 150 7 0 30 -7 49 -15 20 -8 48 -15 63 -15 14 0 24
-3 22 -7 -2 -5 -16 -34 -30 -65 l-27 -58 -45 0 c-25 0 -48 -5 -51 -10 -4 -6
10 -10 34 -10 23 0 41 -5 41 -11 0 -6 -20 -62 -45 -123 -64 -160 -60 -196 20
-196 31 0 53 8 85 31 24 18 41 25 37 16 -14 -38 54 -50 96 -17 26 21 26 21 46
1 16 -16 26 -18 52 -11 36 11 79 47 79 67 0 19 -9 16 -47 -18 -42 -36 -59 -33
-55 9 5 43 -18 42 -71 -3 -69 -59 -81 -39 -16 26 35 35 44 39 71 34 25 -6 29
-4 26 12 -5 30 -54 28 -101 -4 -23 -15 -49 -32 -58 -38 -9 -5 -35 -25 -59 -43
-50 -38 -110 -45 -110 -13 0 23 19 78 67 194 l36 87 58 0 c33 0 59 4 59 10 0
6 -23 10 -51 10 -49 0 -51 1 -44 23 4 12 12 41 18 65 9 32 16 42 32 42 89 0
202 89 229 181 33 109 13 218 -51 284 -59 61 -89 69 -254 70 -142 0 -146 1
-187 28 -31 20 -51 45 -77 100 -20 39 -54 90 -76 113 l-40 41 55 42 c67 52
206 195 267 276 71 95 91 125 81 125 -5 0 -37 -37 -70 -83 -77 -106 -185 -222
-278 -298 -68 -55 -74 -58 -101 -48 -47 19 -153 14 -205 -9 -63 -27 -120 -87
-148 -154 l-23 -56 -81 -17 c-76 -17 -246 -36 -255 -28 -2 1 11 8 30 15 181
63 430 245 582 427 82 97 182 240 174 247 -3 3 -27 -28 -53 -68 -174 -261
-422 -473 -684 -583 -110 -47 -138 -46 -470 16 -384 73 -746 291 -920 557 -54
81 -92 116 -49 45z m2104 -462 c60 -27 97 -76 169 -226 73 -151 132 -222 219
-264 61 -29 114 -23 123 14 10 38 -2 59 -29 50 -77 -25 -189 42 -242 145 -18
34 -17 34 22 18 15 -6 85 -14 155 -18 115 -5 130 -8 167 -33 49 -33 81 -91 88
-163 5 -45 1 -62 -21 -109 -43 -88 -130 -128 -231 -105 -43 10 -58 21 -125 92
-110 119 -199 171 -334 193 -26 4 -40 12 -43 26 -7 24 -19 24 -32 2 -10 -17
-12 -17 -27 2 -9 12 -14 34 -12 58 2 20 0 37 -4 37 -14 0 -38 -45 -38 -70 0
-14 7 -36 16 -48 21 -30 5 -28 -43 7 -83 60 -114 178 -72 271 27 60 54 88 114
116 60 29 125 31 180 5z m29 -467 c87 -27 170 -89 226 -170 l28 -40 -34 -68
c-19 -38 -34 -76 -34 -86 0 -32 -11 -27 -68 32 -66 70 -163 135 -247 169 -33
13 -61 24 -63 25 -1 0 13 27 33 59 19 33 35 66 35 75 0 9 3 19 6 23 8 8 54 0
118 -19z m-116 -209 c102 -47 205 -133 239 -198 l15 -30 -38 8 c-95 17 -221
112 -272 203 -28 50 -20 52 56 17z"/>
<path d="M1315 2315 c-247 -39 -563 -118 -837 -209 -79 -27 -144 -43 -154 -39
-10 4 -15 2 -11 -4 9 -14 -132 -68 -146 -54 -7 7 -4 8 10 5 11 -3 30 3 44 15
l24 20 -25 -5 c-18 -4 -21 -3 -11 4 11 8 11 10 0 15 -8 2 1 5 19 4 18 0 36 3
40 8 8 9 -211 -1 -245 -11 l-23 -6 0 -1029 0 -1029 926 0 c693 0 925 3 922 11
-9 27 -94 117 -107 113 -14 -4 -57 43 -54 61 0 5 -18 26 -40 45 l-42 34 30
-34 c17 -19 33 -36 38 -38 4 -2 4 -8 1 -13 -3 -6 2 -19 11 -29 13 -14 14 -23
6 -37 -10 -16 -10 -15 -8 7 1 18 -2 24 -13 22 -8 -2 -45 -1 -82 3 -49 5 -68
11 -68 21 0 14 -33 11 -70 -6 -8 -4 -40 -4 -70 0 -30 4 -46 8 -35 9 20 2 20 2
0 10 -11 5 -67 17 -123 27 -56 9 -102 21 -102 26 0 4 -9 8 -19 8 -11 0 -23 5
-26 10 -3 6 -17 10 -29 10 -13 0 -36 7 -52 14 -15 8 -32 12 -37 9 -6 -4 -8 1
-4 11 4 10 3 15 -3 11 -6 -3 -10 0 -10 7 0 7 -12 0 -25 -15 -14 -15 -25 -24
-25 -19 0 16 100 107 116 106 7 -1 12 2 9 6 -14 23 195 156 299 191 81 28 99
25 413 -65 521 -149 787 -259 1060 -438 67 -44 128 -78 134 -76 22 7 -252 175
-411 252 -232 112 -454 189 -907 312 -78 21 -139 42 -136 47 15 24 182 -2 404
-63 703 -194 978 -303 1302 -514 15 -10 27 -14 27 -8 0 13 -140 103 -256 164
-237 125 -480 211 -982 348 l-332 91 -133 -2 c-79 -1 -143 3 -160 9 -15 7 -69
15 -120 18 -146 10 -311 -31 -436 -110 -23 -15 -46 -24 -52 -21 -5 4 -8 2 -7
-3 2 -5 -22 -29 -52 -53 -30 -24 -47 -34 -37 -23 9 11 14 24 10 28 -4 4 0 4
10 0 12 -4 19 1 26 17 10 28 7 34 -11 23 -27 -17 -51 -10 -67 18 -9 15 -22 28
-28 28 -7 0 -13 6 -13 13 0 7 -10 17 -22 22 -13 6 -28 24 -33 40 -6 17 -36 57
-68 90 -31 33 -55 66 -52 73 3 7 1 11 -4 8 -4 -3 -14 13 -21 34 -7 22 -19 40
-27 40 -13 0 -16 20 -17 117 0 37 -2 39 -14 22 -9 -13 -10 -24 -3 -37 7 -14 6
-19 -4 -19 -8 0 -11 7 -8 16 5 14 4 14 -11 0 -17 -16 -66 -15 -66 2 0 5 11 4
24 -1 28 -10 32 -7 69 60 21 38 126 278 220 505 l25 60 131 9 c72 5 131 13
131 17 0 5 -55 9 -121 9 -144 0 -137 -25 -49 205 73 192 85 238 62 233 -10 -2
-28 -36 -49 -93 -19 -50 -40 -103 -47 -120 -8 -16 -31 -73 -51 -127 -42 -109
-40 -108 -153 -108 -54 0 -73 -3 -70 -12 3 -9 33 -15 85 -18 74 -5 80 -7 73
-24 -6 -18 -7 -18 -13 -2 -4 10 -12 14 -18 10 -20 -12 -159 -326 -199 -449 -7
-22 -15 -34 -18 -27 -3 9 -11 4 -23 -15 -14 -20 -19 -23 -19 -10 0 9 5 17 11
17 7 0 9 10 4 28 -4 15 -9 52 -11 82 -2 30 -8 56 -14 58 -6 2 -8 8 -5 13 3 4
-3 25 -13 46 -18 35 -19 57 -16 248 5 259 7 284 23 314 11 19 11 25 0 33 -10
6 -6 7 11 2 l25 -7 -20 23 -20 23 31 -16 c20 -10 35 -12 45 -6 10 6 11 9 1 9
-8 0 -10 5 -6 13 5 8 2 7 -10 -2 -13 -11 -19 -12 -29 -2 -7 7 -7 11 -2 10 6
-2 28 6 50 18 22 11 63 28 90 38 28 10 55 22 60 26 19 13 321 108 455 142 412
106 800 150 800 91 0 -36 -230 -173 -405 -241 -133 -51 -131 -50 -122 -59 3
-4 55 10 114 30 187 64 396 180 447 249 19 26 19 28 3 45 -15 14 -39 17 -155
19 -79 1 -175 -4 -227 -12z m-1165 -425 c0 -5 -4 -10 -10 -10 -5 0 -10 5 -10
10 0 6 5 10 10 10 6 0 10 -4 10 -10z m259 -506 c-28 -65 -56 -123 -61 -129 -8
-9 5 23 84 208 12 26 23 46 25 44 2 -2 -20 -58 -48 -123z m934 -760 c16 -9 8
-14 -50 -33 -82 -27 -155 -67 -244 -132 -37 -26 -70 -45 -75 -41 -4 4 -4 2 0
-5 3 -6 -3 -18 -14 -26 -25 -17 -66 -16 -62 2 1 7 -2 10 -8 6 -15 -9 9 -37 27
-31 19 8 17 3 -21 -33 -24 -24 -36 -29 -41 -20 -5 7 -4 10 3 5 6 -3 14 -1 19
6 13 21 12 38 -2 38 -26 0 -115 45 -115 58 0 7 -14 18 -30 24 l-31 10 28 25
c73 63 196 123 308 148 69 16 279 15 308 -1z m-643 -218 c-4 -4 -16 -3 -27 3
-16 11 -15 11 7 6 23 -5 23 -5 8 8 -10 8 -15 17 -11 20 3 4 12 -1 19 -11 7 -9
9 -21 4 -26z m141 -128 c-11 -11 -13 -10 -7 0 4 7 2 21 -5 30 -12 15 -11 15 6
0 16 -15 17 -20 6 -30z m99 2 c0 -5 -2 -10 -4 -10 -3 0 -8 5 -11 10 -3 6 -1
10 4 10 6 0 11 -4 11 -10z m-5 -30 c3 -5 1 -10 -4 -10 -6 0 -11 5 -11 10 0 6
2 10 4 10 3 0 8 -4 11 -10z"/>
<path d="M775 499 c-16 -10 -25 -19 -20 -19 6 0 24 9 40 20 17 11 26 20 20 19
-5 0 -23 -9 -40 -20z"/>
<path d="M1534 1808 c-31 -57 -67 -120 -78 -140 -19 -33 -26 -38 -59 -38 -42
0 -89 -21 -109 -48 -16 -23 -101 -72 -123 -72 -12 0 -15 5 -10 18 29 67 6 89
-57 55 -37 -21 -38 -21 -38 -2 0 36 -26 19 -58 -40 -17 -32 -32 -61 -32 -65 0
-17 34 -1 81 39 57 48 88 60 69 26 -15 -29 -12 -58 7 -65 11 -4 40 5 75 23
l58 30 0 -23 c0 -60 58 -55 126 10 24 24 46 44 48 44 1 0 0 -14 -2 -31 -8 -53
33 -64 92 -24 33 22 36 23 36 6 0 -57 115 -60 187 -5 l33 25 -36 -78 c-102
-220 -125 -276 -115 -286 6 -6 35 42 83 134 41 81 80 145 88 146 73 9 96 18
133 52 56 51 144 81 108 37 -7 -8 -11 -25 -9 -38 3 -20 9 -23 41 -22 21 1 46
9 58 20 19 17 21 18 30 1 15 -26 72 -22 108 9 17 14 31 32 31 40 0 21 -12 17
-45 -17 -37 -38 -61 -35 -57 9 4 43 -19 42 -69 -3 -67 -61 -83 -41 -20 26 35
36 43 40 71 34 27 -6 31 -4 28 12 -5 28 -44 27 -95 -3 -26 -15 -59 -28 -73
-29 -14 -1 -36 -5 -47 -9 -16 -5 -25 -1 -33 15 -10 18 -18 20 -48 16 -21 -3
-45 -8 -54 -12 -13 -5 -18 -2 -18 9 0 23 -27 20 -35 -4 -3 -10 -34 -37 -67
-60 -49 -32 -69 -40 -97 -38 -29 2 -37 8 -39 26 -3 20 1 22 37 22 40 0 81 25
81 50 0 35 -86 29 -128 -10 -11 -11 -26 -20 -33 -20 -6 0 -24 -11 -41 -25 -69
-58 -64 -22 23 178 86 197 86 197 66 197 -10 0 -39 -41 -73 -102z m-129 -208
c7 -12 -83 -110 -101 -110 -17 0 -17 8 -3 49 16 46 87 88 104 61z m273 -22
c-3 -7 -17 -15 -33 -16 -25 -3 -27 -2 -16 12 16 19 55 22 49 4z m247 -17 c0
-14 -112 -87 -120 -79 -8 8 36 59 69 79 33 20 51 20 51 0z"/>
<path d="M914 1675 c-19 -29 -11 -44 14 -29 19 12 29 54 13 54 -6 0 -18 -11
-27 -25z"/>
<path d="M2315 1633 c-16 -16 -16 -38 0 -89 5 -17 -3 -28 -45 -58 -39 -28 -51
-42 -48 -59 3 -19 10 -22 50 -25 29 -2 59 3 79 13 30 16 31 19 26 59 l-6 43
50 24 c60 28 48 38 -18 15 -26 -9 -48 -16 -49 -16 -7 0 -22 63 -18 75 7 17 30
20 39 5 9 -15 25 -12 25 4 0 29 -59 35 -85 9z m25 -168 c0 -30 -15 -38 -62
-33 l-33 3 40 28 c49 33 55 34 55 2z"/>
<path d="M2940 1635 c-12 -15 -10 -60 5 -97 5 -12 -6 -25 -39 -47 -62 -43 -73
-66 -43 -86 47 -30 170 17 154 59 -19 52 -19 53 33 75 27 12 50 26 50 31 0 13
-2 13 -58 -9 -57 -23 -72 -15 -72 36 0 37 2 38 30 21 22 -14 35 -6 27 17 -8
20 -70 20 -87 0z m30 -170 c0 -27 -28 -40 -71 -33 -22 3 -21 5 16 31 49 33 55
34 55 2z"/>
<path d="M871 1587 c-19 -23 -42 -89 -37 -103 13 -34 106 -7 145 42 32 41 25
49 -14 15 -35 -31 -80 -49 -92 -37 -4 3 1 22 10 41 9 20 17 40 17 45 0 14 -16
12 -29 -3z"/>
<path d="M246 1165 c-3 -9 -6 -22 -5 -28 0 -7 5 -1 10 12 5 13 8 26 5 28 -2 2
-6 -3 -10 -12z"/>
<path d="M981 361 c-10 -7 -7 -9 12 -8 14 1 23 5 20 10 -6 9 -15 9 -32 -2z"/>
<path d="M1025 341 c-3 -5 -2 -12 3 -15 5 -3 9 1 9 9 0 17 -3 19 -12 6z"/>
<path d="M946 332 c-2 -4 4 -9 15 -9 11 -1 17 2 14 8 -7 11 -22 12 -29 1z"/>
<path d="M1622 200 c7 -11 17 -20 22 -20 5 0 1 9 -9 20 -10 11 -20 20 -22 20
-2 0 2 -9 9 -20z"/>
<path d="M1597 177 c-3 -8 1 -14 9 -14 16 0 19 13 5 21 -5 3 -11 0 -14 -7z"/>
<path d="M1710 155 c13 -14 26 -23 28 -20 7 7 -29 45 -41 45 -6 0 0 -11 13
-25z"/>
<path d="M1548 163 c6 -2 18 -2 25 0 6 3 1 5 -13 5 -14 0 -19 -2 -12 -5z"/>
</g>
</svg>
